<svg width="20" height="20" viewBox="0 0 25 25" fill="none" xmlns="http://www.w3.org/2000/svg">
<path d="M16.0066 12.2745V3.73211C16.0066 1.65872 14.3479 0 12.2745 0H3.73211C1.65872 0 0 1.65872 0 3.73211V12.2745C0 14.3479 1.65872 16.0066 3.73211 16.0066H12.2745C14.3479 16.0066 16.0066 14.3479 16.0066 12.2745ZM0.870825 12.2745V3.73211C0.870825 2.11486 2.15633 0.829358 3.77358 0.829358H12.316C13.9332 0.829358 15.2187 2.11486 15.2187 3.73211V12.2745C15.2187 13.8917 13.9332 15.1773 12.316 15.1773H3.73211C2.15633 15.1773 0.829358 13.8917 0.870825 12.2745Z" fill="white"/>
<path d="M12.0257 24.3002H20.5681C22.6415 24.3002 24.3002 22.6415 24.3002 20.5681V12.0257C24.3002 9.9523 22.6415 8.29358 20.5681 8.29358H19.324V9.12294H20.5681C22.1853 9.12294 23.4708 10.4084 23.4708 12.0257V20.5681C23.4708 22.1853 22.1853 23.4708 20.5681 23.4708H12.0257C10.4084 23.4708 9.12294 22.1853 9.12294 20.5681V19.324H8.29358V20.5681C8.29358 22.6 9.9523 24.3002 12.0257 24.3002Z" fill="white"/>
</svg>
